#!OML:ASF G:\ViconDB\ViconDB\414\test\team2\shane.ASF
:FULLY-SPECIFIED
:DEGREES
147
root 4.95019 16.2246 -14.7711 110.036 149.603 -47.5759
lowerback 16.7342 -0.183282 7.94659
upperback 2.77159 1.39868 9.30571
thorax -6.45771 0.496296 5.26936
lowerneck -31.3972 -4.29275 -3.74458
upperneck 8.34472 -4.95661 3.81926
head 7.63278 -2.08303 1.15804
rclavicle -1.11319e-014 -1.59028e-014
rhumerus 76.789 -19.9763 -59.8315
rradius 30.4917
rwrist 7.1751
rhand -50.6373 -74.3934
rfingers 7.12502
rthumb -23.2007 -256.984
lclavicle 2.04351e-013 -2.8625e-014
lhumerus 43.4675 34.1193 -7.33743
lradius 30.6317
lwrist 6.26366
lhand -64.7334 45.5319
lfingers 7.12502
lthumb -36.6454 71.6872
rfemur -56.5227 -30.8348 -13.5949
rtibia 59.7572
rfoot -30.5565 -15.7565
rtoes -7.40498
lfemur 20.237 -5.46778 -3.79292
ltibia 54.9761
lfoot 14.0248 -1.87543
ltoes -4.6386
148
root 5.06871 16.1914 -14.5388 109.502 151.423 -47.5622
lowerback 17.4637 -0.12238 7.99369
upperback 3.49813 1.45594 9.28915
thorax -6.06057 0.523475 5.20484
lowerneck -31.7437 -4.27622 -3.80738
upperneck 7.75523 -4.91005 3.8419
head 7.46634 -2.07303 1.18781
rclavicle -1.58233e-013 -1.59028e-014
rhumerus 77.3072 -20.5109 -59.9529
rradius 30.4297
rwrist 6.83897
rhand -50.2528 -74.5873
rfingers 7.12502
rthumb -22.8317 -256.744
lclavicle 2.04351e-013 -2.8625e-014
lhumerus 43.4675 34.1193 -7.33743
lradius 30.6317
lwrist 6.26366
lhand -64.7334 45.5319
lfingers 7.12502
lthumb -36.6454 71.6872
rfemur -60.2835 -31.5078 -13.2663
rtibia 61.1148
rfoot -31.5565 -16.6294
rtoes -7.61503
lfemur 19.3002 -4.36815 -3.73782
ltibia 54.8157
lfoot 14.745 -1.95764
ltoes -4.2543
149
root 5.19345 16.1543 -14.2969 108.836 153.131 -47.7281
lowerback 18.0832 -0.056537 7.89751
upperback 4.20661 1.47906 9.25634
thorax -5.62293 0.537631 5.21044
lowerneck -32.1922 -4.36386 -3.89738
upperneck 7.48371 -5.02318 4.11801
head 7.44935 -2.10167 1.27681
rclavicle 1.27222e-013 1.33583e-013
rhumerus 77.5598 -21.2594 -59.7235
rradius 30.4779
rwrist 5.56389
rhand -50.3141 -75.5221
rfingers 7.12502
rthumb -22.8905 -255.817
lclavicle 2.04351e-013 -2.8625e-014
lhumerus 43.4675 34.1193 -7.33743
lradius 30.6317
lwrist 6.26366
lhand -64.7334 45.5319
lfingers 7.12502
lthumb -36.6454 71.6872
rfemur -63.6532 -32.0509 -13.3242
rtibia 62.2837
rfoot -32.6046 -17.5045
rtoes -6.54593
lfemur 18.1024 -3.42649 -3.68145
ltibia 54.8707
lfoot 15.7029 -2.42317
ltoes -4.05216
150
root 5.30962 16.0974 -14.0787 107.985 155.06 -47.7134
lowerback 18.8855 0.108521 7.9739
upperback 4.93598 1.67128 9.12952
thorax -5.25369 0.626654 4.9795
lowerneck -32.0463 -4.22813 -3.47781
upperneck 6.45138 -4.92384 3.47453
head 7.03873 -2.13793 1.01289
rclavicle 2.03555e-013 -7.95139e-014
rhumerus 77.7821 -22.1296 -60.216
rradius 30.3332
rwrist 5.11473
rhand -49.8799 -76.1767
rfingers 7.12502
rthumb -22.4738 -255.111
lclavicle 2.04351e-013 -2.8625e-014
lhumerus 43.4675 34.1193 -7.33743
lradius 30.6317
lwrist 6.26366
lhand -64.7334 45.5319
lfingers 7.12502
lthumb -36.6454 71.6872
rfemur -66.5152 -32.1069 -13.3945
rtibia 63.2369
rfoot -33.8774 -18.4592
rtoes -5.69172
lfemur 16.9892 -2.9839 -3.96387
ltibia 54.8405
lfoot 16.4024 -3.69816
ltoes -5.09091
151
root 5.42929 16.0441 -13.8435 107.219 156.988 -47.6048
lowerback 19.5344 0.306105 7.95295
upperback 5.59971 1.8749 9.03359
thorax -4.8738 0.722846 4.83436
lowerneck -32.0427 -4.25852 -3.48172
upperneck 5.95296 -4.98168 3.593
head 6.87349 -2.16518 1.04858
rclavicle -1.43125e-014 -5.725e-014
rhumerus 77.7809 -22.9083 -60.1977
rradius 30.1562
rwrist 3.86111
rhand -49.6095 -76.969
rfingers 7.12502
rthumb -22.2143 -254.288
lclavicle -1.43125e-014 -5.725e-014
lhumerus 16.985 6.87701 -23.4513
lradius 32.265
lwrist 33.3287
lhand -58.1566 47.8782
lfingers 7.12502
lthumb -30.3952 75.3932
rfemur -69.4244 -32.0476 -13.5005
rtibia 64.1197
rfoot -35.3066 -19.3526
rtoes -4.81525
lfemur 16.0777 -2.07535 -3.99968
ltibia 55.1355
lfoot 16.0257 -5.01191
ltoes -5.68309
152
root 5.54515 15.9826 -13.6133 106.418 159.152 -47.3976
lowerback 20.2703 0.512603 8.14892
upperback 6.20894 2.14597 8.83973
thorax -4.58233 0.849499 4.44421
lowerneck -31.6539 -4.0914 -3.18444
upperneck 4.85409 -4.82037 2.99317
head 6.41678 -2.17542 0.83375
rclavicle 3.10104e-013 -6.36111e-014
rhumerus 78.2486 -23.6217 -61.6421
rradius 29.4226
rwrist 3.79196
rhand -49.4094 -77.549
rfingers 7.12502
rthumb -22.0221 -253.685
lclavicle 3.10104e-013 -6.36111e-014
lhumerus 13.9802 1.56568 -23.2268
lradius 32.1236
lwrist 35.121
lhand -58.041 48.0347
lfingers 7.12502
lthumb -30.285 75.57
rfemur -72.5209 -32.3603 -12.7629
rtibia 64.9221
rfoot -36.5896 -19.85
rtoes -4.57966
lfemur 14.8567 -1.60223 -4.10577
ltibia 55.3223
lfoot 15.4743 -5.33634
ltoes -4.88818
